<svg width="40" height="40" viewBox="0 0 40 40" fill="none" xmlns="http://www.w3.org/2000/svg">
<path d="M39.2273 4.68875C40.4043 3.47456 40.2168 1.67114 38.8003 0.662294C37.3838 -0.346553 35.2798 -0.185852 34.1028 1.02833L20 15.5361L5.89718 1.02833C4.72021 -0.185852 2.61624 -0.346553 1.19971 0.662294C-0.216824 1.67114 -0.404306 3.47456 0.772665 4.68875L15.6567 20L0.772665 35.3112C-0.404306 36.5254 -0.216824 38.3289 1.19971 39.3377C2.61624 40.3466 4.72021 40.1858 5.89718 38.9717L20 24.4639L34.1028 38.9717C35.2798 40.1858 37.3838 40.3466 38.8003 39.3377C40.2168 38.3289 40.4043 36.5254 39.2273 35.3112L24.3433 20L39.2273 4.68875Z" fill="white"/>
</svg>
