<svg width="122" height="80" viewBox="0 0 122 80" fill="none" xmlns="http://www.w3.org/2000/svg">
<g id="Capa 1">
<path id="Vector" d="M60.3372 36.8686C58.9051 36.8686 57.7598 36.475 56.9046 35.6894C56.0478 34.9038 55.6202 33.8349 55.6202 32.4859C55.6202 31.137 56.0393 30.0528 56.8792 29.2723C57.7191 28.4918 58.8712 28.1015 60.3389 28.1015C61.8065 28.1015 62.9739 28.5003 63.807 29.2995C64.6401 30.0986 65.0575 31.1608 65.0575 32.4859C65.0575 33.8111 64.6316 34.8597 63.7816 35.664C62.9298 36.4682 61.7828 36.8703 60.3389 36.8703L60.3372 36.8686ZM57.3797 54.1585C58.072 52.796 58.6065 51.5404 58.9815 50.39C59.3564 49.2396 59.5448 48.0774 59.5448 46.9049L61.2534 48.1724H60.3372C58.917 48.1724 57.7751 47.7787 56.9131 46.9931C56.0512 46.2076 55.6185 45.1386 55.6185 43.788C55.6185 42.4374 56.0342 41.326 56.869 40.5574C57.7021 39.7888 58.8237 39.4036 60.232 39.4036C61.8048 39.4036 62.996 39.8787 63.8053 40.8289C64.6147 41.779 65.0202 43.1992 65.0202 45.0894C65.0202 46.6623 64.7114 48.2521 64.0955 49.8607C63.4795 51.4692 62.6481 52.9012 61.6046 54.1568H57.3797V54.1585Z" fill="black"/>
<path id="Vector_2" d="M53.3279 27.8844V23.013H42.9743V57.0735H48.0561V60.6401C48.0561 68.5079 41.656 74.9081 33.7881 74.9081C25.9203 74.9081 19.5202 68.5079 19.5202 60.6401V56.4831C20.1005 56.4831 20.6027 56.4474 21.0982 56.4899C23.7349 56.7104 24.6919 55.2275 24.6291 53.0302C24.5273 49.4772 24.5935 45.9191 24.6087 42.3627C24.6189 39.9907 25.3078 37.812 26.5498 35.7963C27.9445 33.5345 29.984 32.0278 32.2865 30.7926C33.9731 29.8882 34.2972 28.2712 33.1553 26.7408C28.479 20.473 23.796 14.2103 19.0994 7.95606C17.91 6.37129 16.0334 6.39165 14.8032 7.96793C14.1076 8.85873 13.4356 9.76479 12.7535 10.6641C8.72547 15.9732 4.6923 21.2772 0.672701 26.5914C-0.459031 28.0863 -0.140042 29.6456 1.4583 30.606C1.96732 30.9114 2.48992 31.193 2.99046 31.5103C7.12204 34.1318 9.30576 37.8545 9.32782 42.775C9.34478 46.4163 9.32612 50.0575 9.33291 53.697C9.3363 55.4548 10.3645 56.4729 12.1275 56.4848C12.8774 56.4899 13.6274 56.4848 14.4215 56.4848H14.4316V60.6418C14.4316 71.316 23.1156 80 33.7898 80C44.4641 80 53.148 71.316 53.148 60.6418V57.0752H53.182V52.2039H49.2065V27.8844H53.3313H53.3279ZM14.4639 51.3487V46.3654H19.4472V51.3487H14.4639ZM14.3943 41.1988C13.8293 35.4315 11.0873 30.93 6.31778 27.5569C8.97829 24.0531 11.6116 20.585 14.245 17.1168C14.3044 17.1321 14.3621 17.149 14.4215 17.1643V17.9635C14.4215 22.2223 14.4198 26.4829 14.4215 30.7417C14.4215 32.469 15.4395 33.616 16.953 33.6194C18.4597 33.6228 19.5066 32.4605 19.5083 30.7519C19.5134 26.5762 19.51 22.4022 19.51 18.2265V17.3068L19.6763 17.2152C22.2757 20.6851 24.8751 24.1566 27.5119 27.6757C22.7813 30.9843 20.1259 35.4739 19.5355 41.1971H14.3943V41.1988Z" fill="black"/>
<g id="Group">
<path id="Vector_3" d="M121.632 41.0715C121.593 32.9034 116.108 25.8788 108.191 23.8207C108.191 23.8207 107.15 23.5407 105.774 23.4016V19.3582C105.774 8.68396 97.0904 0 86.4162 0C75.7419 0 67.058 8.68396 67.058 19.3582V26.0112H67.1089V27.8861H71.2337V52.2056H67.2582V57.0769H77.4472V23.0164H72.1482V19.3599C72.1482 11.4921 78.5484 5.09194 86.4162 5.09194C94.284 5.09194 100.684 11.4921 100.684 19.3599V23.5152C100.504 23.539 100.409 23.556 100.409 23.556C91.8645 25.2137 85.8749 32.3909 85.841 41.0562C85.8206 46.2211 85.8071 51.386 85.858 56.5509C85.8715 57.8948 86.0141 59.2623 86.3042 60.5722C88.2504 69.3308 96.7358 75.4222 106.114 74.248C114.743 73.1672 121.585 65.5183 121.632 56.5679C121.659 51.403 121.658 46.2381 121.632 41.0732V41.0715ZM101.047 28.6818V43.6726H90.9804C90.3051 36.0389 94.8151 29.3096 101.047 28.6818ZM116.158 59.2606C115.101 65.5488 108.835 69.9281 102.52 69.2698C95.9265 68.5826 90.9889 63.2582 90.9329 56.7495C90.9109 54.1348 90.9295 51.5201 90.9295 48.863H116.42C116.449 48.8952 116.518 48.9393 116.517 48.98C116.428 52.4126 116.722 55.9096 116.158 59.2623V59.2606ZM116.469 43.6981H106.241V28.7327C111.986 28.5105 117.387 36.3834 116.469 43.6981Z" fill="black"/>
<path id="Vector_4" d="M106.21 59.0265C104.548 59.0044 102.883 59.0027 101.22 59.0265C99.7662 59.0469 98.6735 60.1294 98.6514 61.5122C98.6277 62.9358 99.7255 64.0574 101.21 64.0964C102.028 64.1184 102.846 64.0998 103.664 64.0998C104.51 64.0998 105.355 64.1133 106.202 64.0964C107.7 64.0658 108.822 62.9748 108.825 61.5648C108.829 60.1565 107.707 59.0452 106.212 59.0248L106.21 59.0265Z" fill="black"/>
</g>
</g>
</svg>
